<?xml version="1.0" encoding="utf-8"?>
<!-- Generator: Adobe Illustrator 23.0.0, SVG Export Plug-In . SVG Version: 6.00 Build 0)  -->
<svg version="1.1" id="Layer_1" xmlns="http://www.w3.org/2000/svg" xmlns:xlink="http://www.w3.org/1999/xlink" x="0px" y="0px"
	 viewBox="0 0 4048.5 3741.2" style="enable-background:new 0 0 4048.5 3741.2;" xml:space="preserve">
<style type="text/css">
	.st0{display:none;fill:#282828;}
	.st1{fill-rule:evenodd;clip-rule:evenodd;fill:url(#SVGID_1_);}
	.st2{fill:url(#SVGID_2_);}
	.st3{fill:url(#SVGID_3_);}
	.st4{fill:url(#SVGID_4_);}
	.st5{fill:url(#SVGID_5_);}
	.st6{fill:url(#SVGID_6_);}
	.st7{fill:url(#SVGID_7_);}
	.st8{fill:url(#SVGID_8_);}
	.st9{fill:url(#SVGID_9_);}
	.st10{fill:url(#SVGID_10_);}
	.st11{fill:url(#SVGID_11_);}
	.st12{fill:url(#SVGID_12_);}
	.st13{fill:url(#SVGID_13_);}
	.st14{fill:url(#SVGID_14_);}
	.st15{fill:url(#SVGID_15_);}
	.st16{fill:url(#SVGID_16_);}
	.st17{fill:url(#SVGID_17_);}
	.st18{fill:url(#SVGID_18_);}
	.st19{fill:url(#SVGID_19_);}
	.st20{fill:url(#SVGID_20_);}
	.st21{fill:url(#SVGID_21_);}
	.st22{fill:url(#SVGID_22_);}
	.st23{fill:url(#SVGID_23_);}
</style>
<title>Logo_GoldIsotype</title>
<rect x="-0.1" y="0.1" class="st0" width="4048.6" height="3741.4"/>
<g id="Isolation_Mode">
	
		<linearGradient id="SVGID_1_" gradientUnits="userSpaceOnUse" x1="3486.6499" y1="1932.1675" x2="3492.6758" y2="1932.1675" gradientTransform="matrix(461.7 0 0 -425.24 -1609150.875 823558.75)">
		<stop  offset="0" style="stop-color:#C7A75A"/>
		<stop  offset="0.52" style="stop-color:#F3DB7F"/>
		<stop  offset="1" style="stop-color:#9E7438"/>
	</linearGradient>
	<path class="st1" d="M3127.7,1096.2l8.8,8.8c0,8.8-87.6,508-122.6,691.9c-96.3,516.7-367.8,832-569.2,998.4
		c-218.9,183.9-420.4,236.5-429.1,245.2c-8.8,0-210.2-61.3-429.1-245.2c-201.4-166.4-464.1-472.9-569.2-998.4
		C973.5,1613,894.7,1105,894.7,1105v-8.8h8.8c35-8.8,840.7-289,1112.2-289S3092.4,1087.3,3127.7,1096.2z M2952.6,1805.5
		C2768.7,2760.1,2015.5,2979,2015.5,2979s-753.2-218.9-937.1-1173.5c-43.8-183.9-122.6-665.6-122.6-665.6s796.9-280.2,1059.7-280.2
		s1059.7,280.2,1059.7,280.2S2987.6,1630.4,2952.6,1805.5z"/>
	
		<linearGradient id="SVGID_2_" gradientUnits="userSpaceOnUse" x1="3486.6499" y1="1934.7729" x2="3492.6758" y2="1934.7729" gradientTransform="matrix(461.7 0 0 -425.24 -1609150.875 823558.75)">
		<stop  offset="0" style="stop-color:#C7A75A"/>
		<stop  offset="0.52" style="stop-color:#F3DB7F"/>
		<stop  offset="1" style="stop-color:#9E7438"/>
	</linearGradient>
	<circle class="st2" cx="1043.4" cy="815.9" r="52.5"/>
	
		<linearGradient id="SVGID_3_" gradientUnits="userSpaceOnUse" x1="3486.6499" y1="1934.9171" x2="3492.6758" y2="1934.9171" gradientTransform="matrix(461.7 0 0 -425.24 -1609150.875 823558.75)">
		<stop  offset="0" style="stop-color:#C7A75A"/>
		<stop  offset="0.52" style="stop-color:#F3DB7F"/>
		<stop  offset="1" style="stop-color:#9E7438"/>
	</linearGradient>
	<circle class="st3" cx="1279.9" cy="754.6" r="52.5"/>
	
		<linearGradient id="SVGID_4_" gradientUnits="userSpaceOnUse" x1="3486.6499" y1="1935.0613" x2="3492.6758" y2="1935.0613" gradientTransform="matrix(461.7 0 0 -425.24 -1609150.875 823558.75)">
		<stop  offset="0" style="stop-color:#C7A75A"/>
		<stop  offset="0.52" style="stop-color:#F3DB7F"/>
		<stop  offset="1" style="stop-color:#9E7438"/>
	</linearGradient>
	<circle class="st4" cx="1507.6" cy="693.3" r="52.5"/>
	
		<linearGradient id="SVGID_5_" gradientUnits="userSpaceOnUse" x1="3486.6499" y1="1935.1847" x2="3492.6758" y2="1935.1847" gradientTransform="matrix(461.7 0 0 -425.24 -1609150.875 823558.75)">
		<stop  offset="0" style="stop-color:#C7A75A"/>
		<stop  offset="0.52" style="stop-color:#F3DB7F"/>
		<stop  offset="1" style="stop-color:#9E7438"/>
	</linearGradient>
	<circle class="st5" cx="1735.3" cy="640.8" r="52.5"/>
	
		<linearGradient id="SVGID_6_" gradientUnits="userSpaceOnUse" x1="3486.6499" y1="1934.7729" x2="3492.6758" y2="1934.7729" gradientTransform="matrix(461.7 0 0 -425.24 -1609150.875 823558.75)">
		<stop  offset="0" style="stop-color:#C7A75A"/>
		<stop  offset="0.52" style="stop-color:#F3DB7F"/>
		<stop  offset="1" style="stop-color:#9E7438"/>
	</linearGradient>
	<circle class="st6" cx="2952.6" cy="815.9" r="52.5"/>
	
		<linearGradient id="SVGID_7_" gradientUnits="userSpaceOnUse" x1="3486.6499" y1="1934.9171" x2="3492.6758" y2="1934.9171" gradientTransform="matrix(461.7 0 0 -425.24 -1609150.875 823558.75)">
		<stop  offset="0" style="stop-color:#C7A75A"/>
		<stop  offset="0.52" style="stop-color:#F3DB7F"/>
		<stop  offset="1" style="stop-color:#9E7438"/>
	</linearGradient>
	<circle class="st7" cx="2724.9" cy="754.6" r="52.5"/>
	
		<linearGradient id="SVGID_8_" gradientUnits="userSpaceOnUse" x1="3486.6499" y1="1935.0613" x2="3492.6758" y2="1935.0613" gradientTransform="matrix(461.7 0 0 -425.24 -1609150.875 823558.75)">
		<stop  offset="0" style="stop-color:#C7A75A"/>
		<stop  offset="0.52" style="stop-color:#F3DB7F"/>
		<stop  offset="1" style="stop-color:#9E7438"/>
	</linearGradient>
	<circle class="st8" cx="2497.2" cy="693.3" r="52.5"/>
	
		<linearGradient id="SVGID_9_" gradientUnits="userSpaceOnUse" x1="3486.6499" y1="1935.1847" x2="3492.6758" y2="1935.1847" gradientTransform="matrix(461.7 0 0 -425.24 -1609150.875 823558.75)">
		<stop  offset="0" style="stop-color:#C7A75A"/>
		<stop  offset="0.52" style="stop-color:#F3DB7F"/>
		<stop  offset="1" style="stop-color:#9E7438"/>
	</linearGradient>
	<circle class="st9" cx="2260.7" cy="640.8" r="52.5"/>
	
		<linearGradient id="SVGID_10_" gradientUnits="userSpaceOnUse" x1="3486.6499" y1="1929.6841" x2="3492.6758" y2="1929.6841" gradientTransform="matrix(461.7 0 0 -425.24 -1609150.875 823558.75)">
		<stop  offset="0" style="stop-color:#C7A75A"/>
		<stop  offset="0.52" style="stop-color:#F3DB7F"/>
		<stop  offset="1" style="stop-color:#9E7438"/>
	</linearGradient>
	<path class="st10" d="M2891.3,2856.4c0,0-236.5-157.6-420.4,87.6c0,0-148.9,210.2-376.6,201.4c0,0,271.5,70.1,507.9-210.2
		C2681.1,2847.7,2786.2,2812.7,2891.3,2856.4L2891.3,2856.4z"/>
	
		<linearGradient id="SVGID_11_" gradientUnits="userSpaceOnUse" x1="3486.6499" y1="1929.6841" x2="3492.6758" y2="1929.6841" gradientTransform="matrix(461.7 0 0 -425.24 -1609150.875 823558.75)">
		<stop  offset="0" style="stop-color:#C7A75A"/>
		<stop  offset="0.52" style="stop-color:#F3DB7F"/>
		<stop  offset="1" style="stop-color:#9E7438"/>
	</linearGradient>
	<path class="st11" d="M1148.5,2856.4c0,0,236.5-157.6,420.4,87.6c0,0,148.9,210.2,376.6,201.4c0,0-271.5,70.1-507.9-210.2
		C1358.7,2847.7,1262.3,2812.7,1148.5,2856.4z"/>
	
		<linearGradient id="SVGID_12_" gradientUnits="userSpaceOnUse" x1="3486.6499" y1="1932.0751" x2="3492.6758" y2="1932.0751" gradientTransform="matrix(461.7 0 0 -425.24 -1609150.875 823558.75)">
		<stop  offset="0" style="stop-color:#C7A75A"/>
		<stop  offset="0.52" style="stop-color:#F3DB7F"/>
		<stop  offset="1" style="stop-color:#9E7438"/>
	</linearGradient>
	<path class="st12" d="M1174.8,2681.3C763.2,2252.2,701.9,1280.1,701.9,1245h35c0,8.8,61.3,998.4,464.2,1418.8L1174.8,2681.3z"/>
	
		<linearGradient id="SVGID_13_" gradientUnits="userSpaceOnUse" x1="3486.6499" y1="1933.4136" x2="3492.6758" y2="1933.4136" gradientTransform="matrix(461.7 0 0 -425.24 -1609150.875 823558.75)">
		<stop  offset="0" style="stop-color:#C7A75A"/>
		<stop  offset="0.52" style="stop-color:#F3DB7F"/>
		<stop  offset="1" style="stop-color:#9E7438"/>
	</linearGradient>
	<path class="st13" d="M815.7,1306.4l-70.1,175.1l-113.9-148.9l96.3,17.5L815.7,1306.4z"/>
	
		<linearGradient id="SVGID_14_" gradientUnits="userSpaceOnUse" x1="3486.6499" y1="1932.4663" x2="3492.6758" y2="1932.4663" gradientTransform="matrix(461.7 0 0 -425.24 -1609150.875 823558.75)">
		<stop  offset="0" style="stop-color:#C7A75A"/>
		<stop  offset="0.52" style="stop-color:#F3DB7F"/>
		<stop  offset="1" style="stop-color:#9E7438"/>
	</linearGradient>
	<path class="st14" d="M877,1709.2l-52.5,175.1l-131.4-131.4l96.3,8.8L877,1709.2z"/>
	
		<linearGradient id="SVGID_15_" gradientUnits="userSpaceOnUse" x1="3486.6499" y1="1931.5394" x2="3492.6758" y2="1931.5394" gradientTransform="matrix(461.7 0 0 -425.24 -1609150.875 823558.75)">
		<stop  offset="0" style="stop-color:#C7A75A"/>
		<stop  offset="0.52" style="stop-color:#F3DB7F"/>
		<stop  offset="1" style="stop-color:#9E7438"/>
	</linearGradient>
	<path class="st15" d="M982.1,2103.3l-35,175.2L807,2164.7h96.3L982.1,2103.3z"/>
	
		<linearGradient id="SVGID_16_" gradientUnits="userSpaceOnUse" x1="3486.6499" y1="1930.582" x2="3492.6758" y2="1930.582" gradientTransform="matrix(461.7 0 0 -425.24 -1609150.875 823558.75)">
		<stop  offset="0" style="stop-color:#C7A75A"/>
		<stop  offset="0.52" style="stop-color:#F3DB7F"/>
		<stop  offset="1" style="stop-color:#9E7438"/>
	</linearGradient>
	<path class="st16" d="M1183.5,2506.1l26.3,183.9l-175.2-70.1l96.3-35L1183.5,2506.1L1183.5,2506.1z"/>
	
		<linearGradient id="SVGID_17_" gradientUnits="userSpaceOnUse" x1="3486.6499" y1="1932.0854" x2="3492.6758" y2="1932.0854" gradientTransform="matrix(461.7 0 0 -425.24 -1609150.875 823558.75)">
		<stop  offset="0" style="stop-color:#C7A75A"/>
		<stop  offset="0.52" style="stop-color:#F3DB7F"/>
		<stop  offset="1" style="stop-color:#9E7438"/>
	</linearGradient>
	<path class="st17" d="M2865,2681.3l-26.3-26.3c402.8-420.4,464.1-1410,464.1-1418.8h35.1C3337.9,1280.1,3285.4,2252.2,2865,2681.3
		L2865,2681.3z"/>
	
		<linearGradient id="SVGID_18_" gradientUnits="userSpaceOnUse" x1="3486.6499" y1="1933.4136" x2="3492.6758" y2="1933.4136" gradientTransform="matrix(461.7 0 0 -425.24 -1609150.875 823558.75)">
		<stop  offset="0" style="stop-color:#C7A75A"/>
		<stop  offset="0.52" style="stop-color:#F3DB7F"/>
		<stop  offset="1" style="stop-color:#9E7438"/>
	</linearGradient>
	<path class="st18" d="M3232.8,1306.4l70,175.1l113.9-148.9l-96.3,17.5L3232.8,1306.4z"/>
	
		<linearGradient id="SVGID_19_" gradientUnits="userSpaceOnUse" x1="3486.6499" y1="1932.4662" x2="3492.6758" y2="1932.4662" gradientTransform="matrix(461.7 0 0 -425.24 -1609150.875 823558.75)">
		<stop  offset="0" style="stop-color:#C7A75A"/>
		<stop  offset="0.52" style="stop-color:#F3DB7F"/>
		<stop  offset="1" style="stop-color:#9E7438"/>
	</linearGradient>
	<path class="st19" d="M3171.5,1709.2l52.5,175.2l131.4-131.4l-105.1,8.8L3171.5,1709.2L3171.5,1709.2z"/>
	
		<linearGradient id="SVGID_20_" gradientUnits="userSpaceOnUse" x1="3486.6499" y1="1931.5394" x2="3492.6758" y2="1931.5394" gradientTransform="matrix(461.7 0 0 -425.24 -1609150.875 823558.75)">
		<stop  offset="0" style="stop-color:#C7A75A"/>
		<stop  offset="0.52" style="stop-color:#F3DB7F"/>
		<stop  offset="1" style="stop-color:#9E7438"/>
	</linearGradient>
	<path class="st20" d="M3066.4,2103.3l35,175.2l140.1-113.8h-105.1L3066.4,2103.3z"/>
	
		<linearGradient id="SVGID_21_" gradientUnits="userSpaceOnUse" x1="3486.6499" y1="1930.582" x2="3492.6758" y2="1930.582" gradientTransform="matrix(461.7 0 0 -425.24 -1609150.875 823558.75)">
		<stop  offset="0" style="stop-color:#C7A75A"/>
		<stop  offset="0.52" style="stop-color:#F3DB7F"/>
		<stop  offset="1" style="stop-color:#9E7438"/>
	</linearGradient>
	<path class="st21" d="M2865,2506.1l-26.3,183.9l166.4-70.1l-87.6-35L2865,2506.1z"/>
	
		<linearGradient id="SVGID_22_" gradientUnits="userSpaceOnUse" x1="3486.6499" y1="1933.1357" x2="3492.6758" y2="1933.1357" gradientTransform="matrix(461.7 0 0 -425.24 -1609150.875 823558.75)">
		<stop  offset="0" style="stop-color:#C7A75A"/>
		<stop  offset="0.52" style="stop-color:#F3DB7F"/>
		<stop  offset="1" style="stop-color:#9E7438"/>
	</linearGradient>
	<path class="st22" d="M1726.5,1288.8c-105.1,0-175.2,61.3-175.2,148.9s52.5,131.4,201.4,201.4c87.6,35,148.9,70.1,192.7,96.3
		v-271.5C1901.6,1341.4,1831.6,1288.8,1726.5,1288.8z"/>
	
		<linearGradient id="SVGID_23_" gradientUnits="userSpaceOnUse" x1="3486.6499" y1="1932.1676" x2="3492.6758" y2="1932.1676" gradientTransform="matrix(461.7 0 0 -425.24 -1609150.875 823558.75)">
		<stop  offset="0" style="stop-color:#C7A75A"/>
		<stop  offset="0.52" style="stop-color:#F3DB7F"/>
		<stop  offset="1" style="stop-color:#9E7438"/>
	</linearGradient>
	<path class="st23" d="M2015.5,929.8c-245.2,0-989.6,262.7-989.6,262.7s78.8,455.4,113.8,621.8
		c175.1,893.3,884.5,1103.5,884.5,1103.5s709.4-210.2,884.5-1103.5c35-166.4,113.8-621.8,113.8-621.8S2260.7,929.8,2015.5,929.8z
		 M2628.5,2260.9h-902c-96.3,0-175.2-26.3-254-87.6l-35,61.3h-26.3l-17.5-289h43.8c26.3,157.6,140.1,254,297.8,254
		c131.4,0,210.2-61.3,210.2-166.4c0-87.6-52.5-140.1-227.7-218.9c-210.2-87.6-280.2-166.4-280.2-297.8
		c0-166.4,122.6-280.2,297.8-280.2h858.2l8.8,236.5h-43.8c-26.3-140.1-87.6-175.2-271.5-175.2h-166.4c-17.5,0-26.3,8.8-26.3,26.3
		v385.3c192.7,0,254-52.5,254-157.6h43.8v367.8h-43.8c0-105.1-52.5-157.6-254-157.6v297.8c0,113.9,52.5,148.9,218.9,148.9
		c183.9,0,254-52.5,289-210.2h43.8L2628.5,2260.9L2628.5,2260.9z"/>
</g>
</svg>
